<svg xmlns="http://www.w3.org/2000/svg" aria-hidden="true" style="position:absolute;width:0;height:0;overflow:hidden">
  <defs>
    <symbol id="icon-arrow-back" viewBox="0 0 32 32">
      <path d="M29 16a.997.997 0 0 1-1 1H6.414l8.293 8.293a1.002 1.002 0 0 1-.012 1.402 1 1 0 0 1-1.402.012l-10-10a1.003 1.003 0 0 1 0-1.414l10-10a1.002 1.002 0 0 1 1.402.012 1 1 0 0 1 .012 1.401l-8.293 8.293H28a.997.997 0 0 1 1 1z"/>
    </symbol>
    <symbol id="icon-burger" viewBox="0 0 48 32">
      <path d="M2.667 32c-.756 0-1.388-.256-1.899-.768S.002 30.087 0 29.333c-.002-.754.254-1.387.768-1.899s1.147-.768 1.899-.768h42.667c.755 0 1.389.256 1.901.768s.767 1.145.765 1.899c-.002.754-.258 1.387-.768 1.901s-1.143.769-1.899.765H2.666zm0-13.333c-.756 0-1.388-.256-1.899-.768S.002 16.754 0 16c-.002-.754.254-1.387.768-1.899s1.147-.768 1.899-.768h42.667c.755 0 1.389.256 1.901.768S48.002 15.246 48 16c-.002.754-.258 1.388-.768 1.901s-1.143.769-1.899.765H2.666zm0-13.334c-.756 0-1.388-.256-1.899-.768S.002 3.42 0 2.666C-.002 1.912.254 1.279.768.767s1.147-.768 1.899-.768h42.667c.755 0 1.389.256 1.901.768s.767 1.145.765 1.899c-.002.754-.258 1.388-.768 1.901s-1.143.769-1.899.765H2.666z"/>
    </symbol>
    <symbol id="icon-x" viewBox="0 0 33 32">
      <path d="M6.585 6.1a2 2 0 0 1 2.828 0l7.072 7.072L23.557 6.1a1.998 1.998 0 0 1 2.804.025 2.001 2.001 0 0 1 .025 2.804l-7.072 7.072 7.072 7.072a1.998 1.998 0 0 1-.025 2.804 2.001 2.001 0 0 1-2.804.025l-7.072-7.072-7.072 7.072a1.998 1.998 0 0 1-2.804-.025 2.001 2.001 0 0 1-.025-2.804l7.072-7.072-7.072-7.072a2 2 0 0 1 0-2.828z"/>
    </symbol>
    <symbol id="icon-facebook" viewBox="0 0 33 32">
      <path d="M21.452 29.333V19.006h3.467l.519-4.024h-3.987v-2.569c0-1.165.324-1.96 1.996-1.96h2.131v-3.6a28.039 28.039 0 0 0-3.107-.16c-3.072 0-5.175 1.876-5.175 5.32v2.969h-3.477v4.024h3.476v10.327H4.624a1.472 1.472 0 0 1-1.472-1.472V4.138c0-.813.659-1.472 1.472-1.472h23.723c.813 0 1.472.659 1.472 1.472v23.723c0 .813-.659 1.472-1.472 1.472h-6.895z"/>
    </symbol>
    <symbol id="icon-instagram" viewBox="0 0 32 32">
    <path fill="none" stroke="#000" stroke-width="1.1034" stroke-linejoin="round" stroke-linecap="round" d="M3 16c0-6.128 0-9.193 1.904-11.097s4.967-1.904 11.097-1.904c6.128 0 9.193 0 11.097 1.904s1.904 4.967 1.904 11.097c0 6.128 0 9.193-1.904 11.097s-4.967 1.904-11.097 1.904c-6.128 0-9.193 0-11.097-1.904s-1.904-4.967-1.904-11.097z"></path>
    <path fill="none" stroke="#000" stroke-width="1.1034" stroke-linejoin="round" stroke-linecap="round" d="M22.158 16c0 1.633-0.649 3.199-1.804 4.354s-2.721 1.804-4.354 1.804c-1.633 0-3.199-0.649-4.354-1.804s-1.804-2.721-1.804-4.354c0-1.633 0.649-3.199 1.804-4.354s2.721-1.804 4.354-1.804c1.633 0 3.199 0.649 4.354 1.804s1.804 2.721 1.804 4.354z"></path>
    <circle fill="none" stroke="#000" stroke-width="1.1034" cx="23.537" cy="8.474" r="0.5"></circle>
    </symbol>
    <symbol id="icon-square-4" viewBox="0 0 32 32">
      <path fill="#79b70e" d="M29.642 26.611h-7.747c0 2.977-1.961 5.389-4.379 5.389s-4.379-2.413-4.379-5.389H5.39V19.2c-2.977 0-5.389-1.961-5.389-4.379s2.413-4.379 5.389-4.379V2.358h24.253v24.253zM4.025 20.837c.186 0 .337.151.337.337v7.064a.337.337 0 0 1-.674 0v-7.064c0-.186.151-.337.337-.337zm7.161 6.726a.337.337 0 0 1 0 .674l-.041.001a.571.571 0 0 0-.049.004c-.078.011-.144.028-1.056.052-.914.024-2.64.057-3.51.073l-.909.016a.337.337 0 0 1 0-.674l.896-.016c.871-.016 2.594-.048 3.504-.072.912-.024.943-.04.977-.045.084-.012.17-.012.187-.012zM31.75 0c.186 0 .337.151.337.337v7.064a.337.337 0 0 1-.674 0V.337c0-.186.151-.337.337-.337zm-1.597.194a.337.337 0 0 1 0 .674l-.896.016c-.871.016-2.594.048-3.504.072-.912.024-.943.04-.977.045-.084.012-.17.012-.186.012a.337.337 0 0 1 0-.674l.041-.001a.538.538 0 0 0 .049-.004c.078-.011.144-.028 1.056-.052.914-.024 2.64-.057 3.51-.073l.909-.016z" style="fill:var(--color1, #79b70e)"/>
    </symbol>
    <symbol id="icon-square-3" viewBox="0 0 41 32">
      <path fill="#f7db31" d="M4.478 22.784c.218 0 .395.177.395.395l.014 1.099c.014 1.086.042 3.244.066 4.426.018.886.033 1.18.042 1.307l.008.088.001.007v.007l.033.456.001.008v.008c.005.159.005.421.005.679a.395.395 0 0 1-.79 0c0-.261 0-.503-.004-.647-.013-.18-.023-.292-.032-.441-.011-.116-.03-.27-.054-1.454s-.052-3.347-.066-4.431l-.014-1.109c0-.218.177-.395.395-.395zm30.287-11.722c3.491 0 6.321 2.299 6.321 5.136s-2.83 5.136-6.321 5.136v9.086H6.321v-9.086C2.83 21.334 0 19.035 0 16.198s2.83-5.136 6.321-5.136V1.976h28.444v9.086zM36.334.088c.218 0 .395.177.395.395l.01 1.171c.01 1.155.031 3.451.047 4.681.008.616.015.944.02 1.127l.011.254v.012c.002.065.006.127.011.188l.018.185.002.017c.007.094.005.128.024.199a.394.394 0 1 1-.763.205 1.468 1.468 0 0 1-.04-.214l-.01-.132a5.236 5.236 0 0 1-.031-.405c-.006-.091-.017-.196-.033-1.424-.016-1.231-.036-3.53-.047-4.684l-.01-1.179c0-.218.177-.395.395-.395z" style="fill:var(--color2, #f7db31)"/>
    </symbol>
    <symbol id="icon-square-2" viewBox="0 0 34 32">
      <path fill="#6018de" d="M32.861 30.906a.348.348 0 0 1 .016.696l-2.805.062-.58.013a.348.348 0 0 1 0-.696l.565-.012 2.804-.062zm.899-4.342c.192 0 .348.156.348.348l.006.732c.006.687.018 2.033.028 2.741.009.715.015.728.017.741.001.014.008.074-.003.138a.357.357 0 0 1-.458.287.347.347 0 0 1-.235-.424 26.15 26.15 0 0 1-.016-.732c-.009-.71-.022-2.058-.028-2.744l-.006-.738c0-.192.156-.348.348-.348zM19.826 0c2.207 0 4.045 1.947 4.442 4.522h8.08v25.043H7.305v-7.652c-3.074 0-5.565-2.024-5.565-4.522s2.492-4.522 5.565-4.522V4.521h8.08c.397-2.575 2.234-4.522 4.442-4.522zM5.638 7.68a.348.348 0 0 1 .381.311c.03.294.03.55.025.696v.009l-.001.009c-.013.149-.022.384-.027.72v.01l-.001.009c-.011.153-.003.287-.005.525a6.05 6.05 0 0 1-.068.856.536.536 0 0 1-.137.308.388.388 0 0 1-.221.112c-.072.011-.131-.002-.154-.007.023.005.022.003-.042 0a8.897 8.897 0 0 0-.694.009c-.411.023-.609.037-1.001.146-.265.074-.486.125-.992.459-.24.158-.378.26-.492.357-.102.086-.207.162-.357.294-.141.124-.261.247-.327.353s-.134.195-.181.262c-.05.07-.089.13-.127.206-.094.188-.153.291-.2.402-.06.143-.107.259-.139.412-.04.19-.053.331-.053.37a.348.348 0 0 1-.696 0 2.9 2.9 0 0 1 .246-1.051c.058-.139.146-.298.219-.445a2.26 2.26 0 0 1 .182-.297c.06-.085.107-.147.161-.232.122-.192.304-.369.456-.503.142-.125.32-.264.368-.304.143-.121.306-.239.558-.405.587-.387.883-.463 1.188-.548.465-.13.722-.147 1.149-.171.185-.01.386-.014.548-.013l.073.001c.027-.233.035-.418.037-.578.002-.182-.005-.38.006-.556.005-.325.014-.574.028-.747a4.604 4.604 0 0 0-.022-.597.348.348 0 0 1 .311-.381z" style="fill:var(--color3, #6018de)"/>
    </symbol>
    <symbol id="icon-square-1" viewBox="0 0 32 32">
      <path fill="none" stroke="#2f85f2" stroke-linecap="round" stroke-width=".771" d="M.873 11.536v-.89c0-.803 0-2.366-.022-3.355C.809 5.398.698 4.789.654 4.262c-.11-.637-.132-.9-.164-1.129-.011-.142-.011-.338-.077-.605M1.07 1.146C1.396 1.124 2.619.95 3.348.872c.373-.055.615-.077.865-.109.185-.011.489-.011.802-.011M31.252 30.473v-.891c0-.761 0-2.214.011-3.018.055-1.11.098-1.417.131-1.789.011-.088.033-.154-.011-.221M27.438 31.525h2.696" style="stroke:var(--color4, #2f85f2)"/>
      <path fill="#2f85f2" d="M11.191 2.699c.162 3.227 2.339 5.783 5.002 5.783s4.84-2.556 5.002-5.783h8.878v8.906c-3.043.308-5.398 2.417-5.398 4.973s2.355 4.665 5.398 4.973v8.907h-8.906c-.308-3.043-2.417-5.398-4.973-5.398s-4.665 2.355-4.973 5.398H2.315v-8.956c2.854-.44 5.012-2.477 5.012-4.924s-2.158-4.484-5.012-4.924V2.698h8.878z" style="fill:var(--color4, #2f85f2)"/>
    </symbol>
    <symbol id="icon-arrow-left" viewBox="0 0 32 32">
      <path d="M26.88 16c0-6.016-4.864-10.88-10.88-10.88S5.12 9.984 5.12 16c0 6.016 4.864 10.88 10.88 10.88S26.88 22.016 26.88 16zM6.4 16c0-5.312 4.288-9.6 9.6-9.6s9.6 4.288 9.6 9.6c0 5.312-4.288 9.6-9.6 9.6S6.4 21.312 6.4 16z"/>
      <path d="M17.088 21.312 11.776 16l5.312-5.312-.896-.896L9.984 16l6.208 6.208.896-.896z"/>
      <path d="M10.88 15.36v1.28h10.88v-1.28H10.88z"/>
    </symbol>
    <symbol id="icon-v" viewBox="0 0 32 32">
      <path d="M16 29.714c-7.574 0-13.714-6.14-13.714-13.714S8.426 2.286 16 2.286c7.574 0 13.714 6.14 13.714 13.714S23.574 29.714 16 29.714zm0 1.524c8.416 0 15.238-6.822 15.238-15.238S24.416.762 16 .762.762 7.584.762 16 7.584 31.238 16 31.238z"/>
      <path d="M24.13 10.102a.76.76 0 0 1 .055 1.076L14.009 22.424l-6.153-5.873a.762.762 0 0 1 1.052-1.102l5.021 4.792 9.127-10.085a.76.76 0 0 1 1.076-.052z"/>
    </symbol>
  </defs>
</svg>
