<svg xmlns="http://www.w3.org/2000/svg" aria-hidden="true" style="position:absolute;width:0;height:0;overflow:hidden">
  <defs>
    <symbol id="icon-arrow-back" viewBox="0 0 32 32">
      <path d="M29 16a.997.997 0 0 1-1 1H6.414l8.293 8.293a1.002 1.002 0 0 1-.012 1.402 1 1 0 0 1-1.402.012l-10-10a1.003 1.003 0 0 1 0-1.414l10-10a1.002 1.002 0 0 1 1.402.012 1 1 0 0 1 .012 1.401l-8.293 8.293H28a.997.997 0 0 1 1 1z"/>
    </symbol>
    <symbol id="icon-burger" viewBox="0 0 48 32">
      <path d="M2.667 32c-.756 0-1.388-.256-1.899-.768S.002 30.087 0 29.333c-.002-.754.254-1.387.768-1.899s1.147-.768 1.899-.768h42.667c.755 0 1.389.256 1.901.768s.767 1.145.765 1.899c-.002.754-.258 1.387-.768 1.901s-1.143.769-1.899.765H2.666zm0-13.333c-.756 0-1.388-.256-1.899-.768S.002 16.754 0 16c-.002-.754.254-1.387.768-1.899s1.147-.768 1.899-.768h42.667c.755 0 1.389.256 1.901.768S48.002 15.246 48 16c-.002.754-.258 1.388-.768 1.901s-1.143.769-1.899.765H2.666zm0-13.334c-.756 0-1.388-.256-1.899-.768S.002 3.42 0 2.666C-.002 1.912.254 1.279.768.767s1.147-.768 1.899-.768h42.667c.755 0 1.389.256 1.901.768s.767 1.145.765 1.899c-.002.754-.258 1.388-.768 1.901s-1.143.769-1.899.765H2.666z"/>
    </symbol>
    <symbol id="icon-x" viewBox="0 0 33 32">
      <path d="M6.585 6.1a2 2 0 0 1 2.828 0l7.072 7.072L23.557 6.1a1.998 1.998 0 0 1 2.804.025 2.001 2.001 0 0 1 .025 2.804l-7.072 7.072 7.072 7.072a1.998 1.998 0 0 1-.025 2.804 2.001 2.001 0 0 1-2.804.025l-7.072-7.072-7.072 7.072a1.998 1.998 0 0 1-2.804-.025 2.001 2.001 0 0 1-.025-2.804l7.072-7.072-7.072-7.072a2 2 0 0 1 0-2.828z"/>
    </symbol>
    <symbol id="icon-facebook" viewBox="0 0 33 32">
      <path d="M21.452 29.333V19.006h3.467l.519-4.024h-3.987v-2.569c0-1.165.324-1.96 1.996-1.96h2.131v-3.6a28.039 28.039 0 0 0-3.107-.16c-3.072 0-5.175 1.876-5.175 5.32v2.969h-3.477v4.024h3.476v10.327H4.624a1.472 1.472 0 0 1-1.472-1.472V4.138c0-.813.659-1.472 1.472-1.472h23.723c.813 0 1.472.659 1.472 1.472v23.723c0 .813-.659 1.472-1.472 1.472h-6.895z"/>
    </symbol>
    <symbol id="icon-instagram" viewBox="0 0 32 32">
    <path fill="none" stroke="#000" stroke-width="1.1034" stroke-linejoin="round" stroke-linecap="round" d="M3 16c0-6.128 0-9.193 1.904-11.097s4.967-1.904 11.097-1.904c6.128 0 9.193 0 11.097 1.904s1.904 4.967 1.904 11.097c0 6.128 0 9.193-1.904 11.097s-4.967 1.904-11.097 1.904c-6.128 0-9.193 0-11.097-1.904s-1.904-4.967-1.904-11.097z"></path>
    <path fill="none" stroke="#000" stroke-width="1.1034" stroke-linejoin="round" stroke-linecap="round" d="M22.158 16c0 1.633-0.649 3.199-1.804 4.354s-2.721 1.804-4.354 1.804c-1.633 0-3.199-0.649-4.354-1.804s-1.804-2.721-1.804-4.354c0-1.633 0.649-3.199 1.804-4.354s2.721-1.804 4.354-1.804c1.633 0 3.199 0.649 4.354 1.804s1.804 2.721 1.804 4.354z"></path>
    <circle fill="none" stroke="#000" stroke-width="1.1034" cx="23.537" cy="8.474" r="0.5"></circle>
    </symbol>
      <symbol id="icon-union-1" viewBox="0 0 37 32">
      <path fill="none" stroke="#2f85f2" stroke-linecap="round" stroke-width=".821" d="M1.079 12.551v-1.002c0-.904 0-2.663-.032-3.777C.987 5.641.824 4.955.76 4.362.6 3.645.569 3.349.521 3.091c-.016-.16-.016-.38-.112-.681M1.365.854C1.839.83 3.616.633 4.674.546 5.217.484 5.567.46 5.931.423 6.2.41 6.642.41 7.096.41M36.694 30.405v-1.003c0-.856 0-2.493.016-3.397.08-1.25.143-1.595.191-2.014.016-.1.047-.173-.016-.248M31.153 31.59h3.917" style="stroke:var(--color1, #2f85f2)"/>
      <path fill="#2f85f2" d="M13.262 2.55c.192 3.222 2.774 5.774 5.93 5.774s5.738-2.552 5.93-5.774h10.524v8.892c-3.607.308-6.399 2.414-6.399 4.966s2.791 4.657 6.399 4.965v8.893H25.088c-.366-3.038-2.866-5.389-5.895-5.389s-5.53 2.351-5.896 5.389H2.739v-8.942c3.383-.439 5.942-2.473 5.942-4.916s-2.558-4.477-5.942-4.916V2.551h10.524z" style="fill:var(--color1, #2f85f2)"/>
    </symbol>
    <symbol id="icon-union-3" viewBox="0 0 37 32">
      <path fill="#ffe000" d="M1.646.922A.42.42 0 0 1 1.631.08L5.244.014 5.99.001a.422.422 0 0 1 0 .842l-.73.013-3.613.066zM.491 5.532a.421.421 0 0 1-.421-.421l-.008-.776C.054 3.607.038 2.177.026 1.425.014.664.006.657.005.651.003.635-.008.555.011.467A.44.44 0 0 1 .545.132a.422.422 0 0 1 .308.51L.85.651c.005.097.012.294.019.762.012.754.028 2.186.036 2.914l.008.785a.421.421 0 0 1-.421.421zm16.686 26.47c-2.481 0-4.599-1.573-5.439-3.789H1.308V1.266h32v7.066c2.458.9 4.164 2.874 4.164 5.164s-1.706 4.264-4.164 5.164v9.553H22.615c-.84 2.216-2.958 3.789-5.439 3.789z" style="fill:var(--color2, #ffe000)"/>
    </symbol>
    <symbol id="icon-union-4" viewBox="0 0 37 32">
      <path fill="#74c365" d="M35.827 31.081a.42.42 0 0 1 .015.842l-3.613.066-.745.013a.421.421 0 0 1 0-.842l.73-.013 3.613-.066zm1.155-4.61c.233 0 .421.189.421.421l.008.776c.008.728.024 2.158.036 2.91.012.761.02.768.021.774.002.016.013.096-.006.184a.44.44 0 0 1-.534.335.422.422 0 0 1-.308-.51l.003-.009a23.161 23.161 0 0 1-.019-.762c-.012-.754-.028-2.186-.036-2.914l-.008-.785a.42.42 0 0 1 .421-.421zM20.155.001c2.424 0 4.493 1.574 5.31 3.789h10.699v26.947h-32v-7.066C1.706 22.771 0 20.797 0 18.507s1.706-4.264 4.164-5.164V3.79h10.68c.817-2.216 2.886-3.789 5.31-3.789z" style="fill:var(--color3, #74c365)"/>
    </symbol>
    <symbol id="icon-union-2" viewBox="0 0 37 32">
      <path fill="#6018de" d="M35.827 31.08a.42.42 0 0 1 .015.842l-3.613.066-.745.013a.421.421 0 0 1 0-.842l.73-.013 3.613-.066zm1.155-4.61c.233 0 .421.189.421.421l.008.776c.008.728.024 2.158.036 2.91.012.761.02.769.021.774.002.016.013.096-.006.184a.44.44 0 0 1-.534.335.422.422 0 0 1-.308-.51l.003-.009a23.161 23.161 0 0 1-.019-.762c-.012-.754-.028-2.186-.036-2.914l-.008-.785a.42.42 0 0 1 .421-.421zM20.155 0c2.424 0 4.493 1.574 5.31 3.789h10.699v26.947h-32V23.67C1.706 22.77 0 20.796 0 18.506s1.706-4.264 4.164-5.164V3.789h10.68C15.661 1.573 17.73 0 20.154 0z" style="fill:var(--color4, #6018de)"/>
    </symbol>
    <symbol id="icon-arrow-left" viewBox="0 0 32 32">
      <path d="M26.88 16c0-6.016-4.864-10.88-10.88-10.88S5.12 9.984 5.12 16c0 6.016 4.864 10.88 10.88 10.88S26.88 22.016 26.88 16zM6.4 16c0-5.312 4.288-9.6 9.6-9.6s9.6 4.288 9.6 9.6c0 5.312-4.288 9.6-9.6 9.6S6.4 21.312 6.4 16z"/>
      <path d="M17.088 21.312 11.776 16l5.312-5.312-.896-.896L9.984 16l6.208 6.208.896-.896z"/>
      <path d="M10.88 15.36v1.28h10.88v-1.28H10.88z"/>
    </symbol>
    <symbol id="icon-v" viewBox="0 0 32 32">
      <path d="M16 29.714c-7.574 0-13.714-6.14-13.714-13.714S8.426 2.286 16 2.286c7.574 0 13.714 6.14 13.714 13.714S23.574 29.714 16 29.714zm0 1.524c8.416 0 15.238-6.822 15.238-15.238S24.416.762 16 .762.762 7.584.762 16 7.584 31.238 16 31.238z"/>
      <path d="M24.13 10.102a.76.76 0 0 1 .055 1.076L14.009 22.424l-6.153-5.873a.762.762 0 0 1 1.052-1.102l5.021 4.792 9.127-10.085a.76.76 0 0 1 1.076-.052z"/>
    </symbol>
    <symbol id="icon-google-play" viewBox="0 0 29 32">
      <path fill="#ea4335" d="M13.544 15.285.12 29.349a3.669 3.669 0 0 0 3.517 2.642c.668 0 1.294-.179 1.833-.491l-.018.009 15.105-8.603z" style="fill:var(--color1, #ea4335)"/>
      <path fill="#fbbc04" d="m27.118 12.894-6.532-3.741-7.352 6.452 7.382 7.282 6.482-3.701a3.546 3.546 0 0 0 1.491-4.81l.009.019a3.655 3.655 0 0 0-1.481-1.491l-.019-.009z" style="fill:var(--color2, #fbbc04)"/>
      <path fill="#4285f4" d="M.12 2.661c-.076.275-.12.592-.12.918V28.431c0 .326.044.643.126.943l-.006-.025 13.884-13.704z" style="fill:var(--color3, #4285f4)"/>
      <path fill="#34a853" d="m13.644 16.005 6.942-6.852L5.501.51A3.681 3.681 0 0 0 3.631 0h-.008A3.644 3.644 0 0 0 .125 2.625l-.006.026z" style="fill:var(--color4, #34a853)"/>
    </symbol>
       </defs>
</svg>
