<svg xmlns="http://www.w3.org/2000/svg" aria-hidden="true" style="position:absolute;width:0;height:0;overflow:hidden">
  <defs>
    <symbol id="icon-arrow-back" viewBox="0 0 32 32">
      <path d="M29 16a.997.997 0 0 1-1 1H6.414l8.293 8.293a1.002 1.002 0 0 1-.012 1.402 1 1 0 0 1-1.402.012l-10-10a1.003 1.003 0 0 1 0-1.414l10-10a1.002 1.002 0 0 1 1.402.012 1 1 0 0 1 .012 1.401l-8.293 8.293H28a.997.997 0 0 1 1 1z"/>
    </symbol>
    <symbol id="icon-burger" viewBox="0 0 48 32">
      <path d="M2.667 32c-.756 0-1.388-.256-1.899-.768S.002 30.087 0 29.333c-.002-.754.254-1.387.768-1.899s1.147-.768 1.899-.768h42.667c.755 0 1.389.256 1.901.768s.767 1.145.765 1.899c-.002.754-.258 1.387-.768 1.901s-1.143.769-1.899.765H2.666zm0-13.333c-.756 0-1.388-.256-1.899-.768S.002 16.754 0 16c-.002-.754.254-1.387.768-1.899s1.147-.768 1.899-.768h42.667c.755 0 1.389.256 1.901.768S48.002 15.246 48 16c-.002.754-.258 1.388-.768 1.901s-1.143.769-1.899.765H2.666zm0-13.334c-.756 0-1.388-.256-1.899-.768S.002 3.42 0 2.666C-.002 1.912.254 1.279.768.767s1.147-.768 1.899-.768h42.667c.755 0 1.389.256 1.901.768s.767 1.145.765 1.899c-.002.754-.258 1.388-.768 1.901s-1.143.769-1.899.765H2.666z"/>
    </symbol>
    <symbol id="icon-x" viewBox="0 0 33 32">
      <path d="M6.585 6.1a2 2 0 0 1 2.828 0l7.072 7.072L23.557 6.1a1.998 1.998 0 0 1 2.804.025 2.001 2.001 0 0 1 .025 2.804l-7.072 7.072 7.072 7.072a1.998 1.998 0 0 1-.025 2.804 2.001 2.001 0 0 1-2.804.025l-7.072-7.072-7.072 7.072a1.998 1.998 0 0 1-2.804-.025 2.001 2.001 0 0 1-.025-2.804l7.072-7.072-7.072-7.072a2 2 0 0 1 0-2.828z"/>
    </symbol>
    <symbol id="icon-facebook" viewBox="0 0 33 32">
      <path d="M21.452 29.333V19.006h3.467l.519-4.024h-3.987v-2.569c0-1.165.324-1.96 1.996-1.96h2.131v-3.6a28.039 28.039 0 0 0-3.107-.16c-3.072 0-5.175 1.876-5.175 5.32v2.969h-3.477v4.024h3.476v10.327H4.624a1.472 1.472 0 0 1-1.472-1.472V4.138c0-.813.659-1.472 1.472-1.472h23.723c.813 0 1.472.659 1.472 1.472v23.723c0 .813-.659 1.472-1.472 1.472h-6.895z"/>
    </symbol>
    <symbol id="icon-instagram" viewBox="0 0 32 32">
    <path fill="none" stroke="#000" stroke-width="1.1034" stroke-linejoin="round" stroke-linecap="round" d="M3 16c0-6.128 0-9.193 1.904-11.097s4.967-1.904 11.097-1.904c6.128 0 9.193 0 11.097 1.904s1.904 4.967 1.904 11.097c0 6.128 0 9.193-1.904 11.097s-4.967 1.904-11.097 1.904c-6.128 0-9.193 0-11.097-1.904s-1.904-4.967-1.904-11.097z"></path>
    <path fill="none" stroke="#000" stroke-width="1.1034" stroke-linejoin="round" stroke-linecap="round" d="M22.158 16c0 1.633-0.649 3.199-1.804 4.354s-2.721 1.804-4.354 1.804c-1.633 0-3.199-0.649-4.354-1.804s-1.804-2.721-1.804-4.354c0-1.633 0.649-3.199 1.804-4.354s2.721-1.804 4.354-1.804c1.633 0 3.199 0.649 4.354 1.804s1.804 2.721 1.804 4.354z"></path>
    <circle fill="none" stroke="#000" stroke-width="1.1034" cx="23.537" cy="8.474" r="0.5"></circle>
    </symbol>
    <symbol id="icon-square-4" viewBox="0 0 32 32">
      <path fill="#79b70e" d="M29.642 26.611h-7.747c0 2.977-1.961 5.389-4.379 5.389s-4.379-2.413-4.379-5.389H5.39V19.2c-2.977 0-5.389-1.961-5.389-4.379s2.413-4.379 5.389-4.379V2.358h24.253v24.253zM4.025 20.837c.186 0 .337.151.337.337v7.064a.337.337 0 0 1-.674 0v-7.064c0-.186.151-.337.337-.337zm7.161 6.726a.337.337 0 0 1 0 .674l-.041.001a.571.571 0 0 0-.049.004c-.078.011-.144.028-1.056.052-.914.024-2.64.057-3.51.073l-.909.016a.337.337 0 0 1 0-.674l.896-.016c.871-.016 2.594-.048 3.504-.072.912-.024.943-.04.977-.045.084-.012.17-.012.187-.012zM31.75 0c.186 0 .337.151.337.337v7.064a.337.337 0 0 1-.674 0V.337c0-.186.151-.337.337-.337zm-1.597.194a.337.337 0 0 1 0 .674l-.896.016c-.871.016-2.594.048-3.504.072-.912.024-.943.04-.977.045-.084.012-.17.012-.186.012a.337.337 0 0 1 0-.674l.041-.001a.538.538 0 0 0 .049-.004c.078-.011.144-.028 1.056-.052.914-.024 2.64-.057 3.51-.073l.909-.016z" style="fill:var(--color1, #79b70e)"/>
    </symbol>
    <symbol id="icon-square-3" viewBox="0 0 41 32">
      <path fill="#f7db31" d="M4.478 22.784c.218 0 .395.177.395.395l.014 1.099c.014 1.086.042 3.244.066 4.426.018.886.033 1.18.042 1.307l.008.088.001.007v.007l.033.456.001.008v.008c.005.159.005.421.005.679a.395.395 0 0 1-.79 0c0-.261 0-.503-.004-.647-.013-.18-.023-.292-.032-.441-.011-.116-.03-.27-.054-1.454s-.052-3.347-.066-4.431l-.014-1.109c0-.218.177-.395.395-.395zm30.287-11.722c3.491 0 6.321 2.299 6.321 5.136s-2.83 5.136-6.321 5.136v9.086H6.321v-9.086C2.83 21.334 0 19.035 0 16.198s2.83-5.136 6.321-5.136V1.976h28.444v9.086zM36.334.088c.218 0 .395.177.395.395l.01 1.171c.01 1.155.031 3.451.047 4.681.008.616.015.944.02 1.127l.011.254v.012c.002.065.006.127.011.188l.018.185.002.017c.007.094.005.128.024.199a.394.394 0 1 1-.763.205 1.468 1.468 0 0 1-.04-.214l-.01-.132a5.236 5.236 0 0 1-.031-.405c-.006-.091-.017-.196-.033-1.424-.016-1.231-.036-3.53-.047-4.684l-.01-1.179c0-.218.177-.395.395-.395z" style="fill:var(--color2, #f7db31)"/>
    </symbol>
    <symbol id="icon-square-2" viewBox="0 0 34 32">
      <path fill="#6018de" d="M32.861 30.906a.348.348 0 0 1 .016.696l-2.805.062-.58.013a.348.348 0 0 1 0-.696l.565-.012 2.804-.062zm.899-4.342c.192 0 .348.156.348.348l.006.732c.006.687.018 2.033.028 2.741.009.715.015.728.017.741.001.014.008.074-.003.138a.357.357 0 0 1-.458.287.347.347 0 0 1-.235-.424 26.15 26.15 0 0 1-.016-.732c-.009-.71-.022-2.058-.028-2.744l-.006-.738c0-.192.156-.348.348-.348zM19.826 0c2.207 0 4.045 1.947 4.442 4.522h8.08v25.043H7.305v-7.652c-3.074 0-5.565-2.024-5.565-4.522s2.492-4.522 5.565-4.522V4.521h8.08c.397-2.575 2.234-4.522 4.442-4.522zM5.638 7.68a.348.348 0 0 1 .381.311c.03.294.03.55.025.696v.009l-.001.009c-.013.149-.022.384-.027.72v.01l-.001.009c-.011.153-.003.287-.005.525a6.05 6.05 0 0 1-.068.856.536.536 0 0 1-.137.308.388.388 0 0 1-.221.112c-.072.011-.131-.002-.154-.007.023.005.022.003-.042 0a8.897 8.897 0 0 0-.694.009c-.411.023-.609.037-1.001.146-.265.074-.486.125-.992.459-.24.158-.378.26-.492.357-.102.086-.207.162-.357.294-.141.124-.261.247-.327.353s-.134.195-.181.262c-.05.07-.089.13-.127.206-.094.188-.153.291-.2.402-.06.143-.107.259-.139.412-.04.19-.053.331-.053.37a.348.348 0 0 1-.696 0 2.9 2.9 0 0 1 .246-1.051c.058-.139.146-.298.219-.445a2.26 2.26 0 0 1 .182-.297c.06-.085.107-.147.161-.232.122-.192.304-.369.456-.503.142-.125.32-.264.368-.304.143-.121.306-.239.558-.405.587-.387.883-.463 1.188-.548.465-.13.722-.147 1.149-.171.185-.01.386-.014.548-.013l.073.001c.027-.233.035-.418.037-.578.002-.182-.005-.38.006-.556.005-.325.014-.574.028-.747a4.604 4.604 0 0 0-.022-.597.348.348 0 0 1 .311-.381z" style="fill:var(--color3, #6018de)"/>
    </symbol>
    <symbol id="icon-square-1" viewBox="0 0 32 32">
      <path fill="none" stroke="#2f85f2" stroke-linecap="round" stroke-width=".771" d="M.873 11.536v-.89c0-.803 0-2.366-.022-3.355C.809 5.398.698 4.789.654 4.262c-.11-.637-.132-.9-.164-1.129-.011-.142-.011-.338-.077-.605M1.07 1.146C1.396 1.124 2.619.95 3.348.872c.373-.055.615-.077.865-.109.185-.011.489-.011.802-.011M31.252 30.473v-.891c0-.761 0-2.214.011-3.018.055-1.11.098-1.417.131-1.789.011-.088.033-.154-.011-.221M27.438 31.525h2.696" style="stroke:var(--color4, #2f85f2)"/>
      <path fill="#2f85f2" d="M11.191 2.699c.162 3.227 2.339 5.783 5.002 5.783s4.84-2.556 5.002-5.783h8.878v8.906c-3.043.308-5.398 2.417-5.398 4.973s2.355 4.665 5.398 4.973v8.907h-8.906c-.308-3.043-2.417-5.398-4.973-5.398s-4.665 2.355-4.973 5.398H2.315v-8.956c2.854-.44 5.012-2.477 5.012-4.924s-2.158-4.484-5.012-4.924V2.698h8.878z" style="fill:var(--color4, #2f85f2)"/>
    </symbol>
    <symbol id="icon-arrow-left" viewBox="0 0 32 32">
      <path d="M26.88 16c0-6.016-4.864-10.88-10.88-10.88S5.12 9.984 5.12 16c0 6.016 4.864 10.88 10.88 10.88S26.88 22.016 26.88 16zM6.4 16c0-5.312 4.288-9.6 9.6-9.6s9.6 4.288 9.6 9.6c0 5.312-4.288 9.6-9.6 9.6S6.4 21.312 6.4 16z"/>
      <path d="M17.088 21.312 11.776 16l5.312-5.312-.896-.896L9.984 16l6.208 6.208.896-.896z"/>
      <path d="M10.88 15.36v1.28h10.88v-1.28H10.88z"/>
    </symbol>
    <symbol id="icon-v" viewBox="0 0 32 32">
      <path d="M16 29.714c-7.574 0-13.714-6.14-13.714-13.714S8.426 2.286 16 2.286c7.574 0 13.714 6.14 13.714 13.714S23.574 29.714 16 29.714zm0 1.524c8.416 0 15.238-6.822 15.238-15.238S24.416.762 16 .762.762 7.584.762 16 7.584 31.238 16 31.238z"/>
      <path d="M24.13 10.102a.76.76 0 0 1 .055 1.076L14.009 22.424l-6.153-5.873a.762.762 0 0 1 1.052-1.102l5.021 4.792 9.127-10.085a.76.76 0 0 1 1.076-.052z"/>
    </symbol>
    <symbol id="icon-google-play" viewBox="0 0 29 32">
      <path fill="#ea4335" d="M13.544 15.285.12 29.349a3.669 3.669 0 0 0 3.517 2.642c.668 0 1.294-.179 1.833-.491l-.018.009 15.105-8.603z" style="fill:var(--color1, #ea4335)"/>
      <path fill="#fbbc04" d="m27.118 12.894-6.532-3.741-7.352 6.452 7.382 7.282 6.482-3.701a3.546 3.546 0 0 0 1.491-4.81l.009.019a3.655 3.655 0 0 0-1.481-1.491l-.019-.009z" style="fill:var(--color2, #fbbc04)"/>
      <path fill="#4285f4" d="M.12 2.661c-.076.275-.12.592-.12.918V28.431c0 .326.044.643.126.943l-.006-.025 13.884-13.704z" style="fill:var(--color3, #4285f4)"/>
      <path fill="#34a853" d="m13.644 16.005 6.942-6.852L5.501.51A3.681 3.681 0 0 0 3.631 0h-.008A3.644 3.644 0 0 0 .125 2.625l-.006.026z" style="fill:var(--color4, #34a853)"/>
    </symbol>
      <symbol id="icon-google-play" viewBox="0 0 110 32">
      <path fill="#fff" d="M3.429.381h102.857a3.048 3.048 0 0 1 3.048 3.048v25.143a3.048 3.048 0 0 1-3.048 3.048H3.429a3.048 3.048 0 0 1-3.048-3.048V3.429A3.048 3.048 0 0 1 3.429.381z" style="fill:var(--color1, #fff)"/>
      <path fill="none" stroke="#a6a6a6" stroke-width=".762" d="M3.429.381h102.857a3.048 3.048 0 0 1 3.048 3.048v25.143a3.048 3.048 0 0 1-3.048 3.048H3.429a3.048 3.048 0 0 1-3.048-3.048V3.429A3.048 3.048 0 0 1 3.429.381z" style="stroke:var(--color2, #a6a6a6)"/>
      <path fill="#34a853" d="M19.274 13 7.401 6.359c-.699-.386-1.314-.339-1.69.051l10.13 9.969L19.274 13z" style="fill:var(--color3, #34a853)"/>
      <path fill="#ea4335" d="m19.274 19.758-3.433-3.379-10.13 9.973c.377.39.992.437 1.69.047l11.873-6.641z" style="fill:var(--color4, #ea4335)"/>
      <path fill="#fbbc04" d="m19.194 19.8-3.353-3.305v-.234l3.358-3.305.075.043 3.976 2.227c1.135.632 1.135 1.672 0 2.308L19.195 19.8z" style="fill:var(--color5, #fbbc04)"/>
      <path fill="#4285f4" d="M5.71 6.41c-.239.246-.377.629-.377 1.125v17.692c0 .496.138.879.377 1.125l.059.054 10.071-9.91v-.234L5.769 6.352l-.059.058z" style="fill:var(--color6, #4285f4)"/>
      <path d="M28.832 11.855c-.406 0-.782-.066-1.128-.198a2.777 2.777 0 0 1-.891-.571 2.686 2.686 0 0 1-.587-.861c-.137-.33-.206-.691-.206-1.082s.069-.752.206-1.082a2.613 2.613 0 0 1 1.485-1.425c.345-.137.721-.206 1.128-.206s.777.064 1.112.19c.34.127.63.32.869.579l-.35.358c-.224-.223-.47-.383-.739-.48s-.559-.145-.869-.145c-.33 0-.635.056-.914.168a2.141 2.141 0 0 0-1.204 1.166 2.22 2.22 0 0 0-.168.876c0 .315.056.607.168.876.117.269.277.505.48.709.208.198.45.353.724.465.279.107.582.16.907.16.305 0 .592-.046.861-.137a1.99 1.99 0 0 0 .754-.465l.32.427a2.616 2.616 0 0 1-.891.51 3.39 3.39 0 0 1-1.067.168zm1.417-.746V9.143h.541v2.034l-.541-.069zm2.563-2.248h2.819v.48h-2.819v-.48zm.061 2.461h3.208v.488H32.31V6.477h3.657v.488h-3.093v4.358zm5.493.488V6.964h-1.874v-.488h4.312v.488H38.93v4.846h-.564zm5.181 0V6.477h.564v5.333h-.564zm3.259 0V6.964h-1.874v-.488h4.312v.488H47.37v4.846h-.564zm7.512.045c-.401 0-.774-.066-1.12-.198a2.777 2.777 0 0 1-.891-.571 2.783 2.783 0 0 1-.587-.861c-.137-.33-.206-.691-.206-1.082s.069-.749.206-1.074a2.67 2.67 0 0 1 .587-.861c.254-.249.551-.439.891-.571.34-.137.714-.206 1.12-.206.401 0 .772.069 1.112.206.34.132.635.32.884.564.254.244.45.531.587.861.142.33.213.691.213 1.082s-.071.752-.213 1.082c-.137.33-.333.617-.587.861a2.677 2.677 0 0 1-.884.571c-.34.132-.711.198-1.112.198zm0-.503c.32 0 .614-.053.884-.16a2.14 2.14 0 0 0 1.181-1.166c.112-.269.168-.564.168-.884s-.056-.612-.168-.876a2.09 2.09 0 0 0-.472-.701 1.979 1.979 0 0 0-.709-.465c-.269-.112-.564-.168-.884-.168s-.617.056-.891.168a2.06 2.06 0 0 0-.716.465 2.248 2.248 0 0 0-.472.701 2.22 2.22 0 0 0-.168.876c0 .315.056.607.168.876.117.269.274.505.472.709.203.198.442.353.716.465.274.107.571.16.891.16zm3.983.458V6.477h.465l3.68 4.632h-.244V6.477h.556v5.333h-.465l-3.672-4.632h.244v4.632h-.564zM30.756 26.027c-.666 0-1.28-.106-1.841-.317a4.532 4.532 0 0 1-1.451-.914c-.414-.398-.735-.866-.963-1.402s-.341-1.122-.341-1.755.114-1.219.341-1.755c.228-.536.549-1 .963-1.39a4.376 4.376 0 0 1 1.475-.914 5.018 5.018 0 0 1 1.841-.329c.723 0 1.373.118 1.95.354a3.83 3.83 0 0 1 1.475 1.036l-1 .975a3.195 3.195 0 0 0-1.085-.731 3.2 3.2 0 0 0-1.268-.244c-.447 0-.861.073-1.243.219s-.711.354-.987.622a2.854 2.854 0 0 0-.646.951 3.228 3.228 0 0 0-.219 1.207c0 .431.073.829.219 1.195.154.366.37.687.646.963.276.268.601.475.975.622s.788.219 1.243.219c.423 0 .829-.065 1.219-.195a3.387 3.387 0 0 0 1.134-.683l.902 1.182c-.447.358-.967.63-1.56.817a6.05 6.05 0 0 1-1.78.268zm1.841-1.293V21.54h1.499v3.401l-1.499-.207zm6.369 1.256c-.666 0-1.26-.142-1.78-.427-.52-.293-.931-.691-1.231-1.195s-.451-1.077-.451-1.719c0-.65.15-1.223.451-1.719.301-.504.711-.898 1.231-1.182s1.113-.427 1.78-.427c.675 0 1.272.142 1.792.427.528.284.939.675 1.231 1.17.301.496.451 1.073.451 1.731 0 .642-.15 1.215-.451 1.719a3.173 3.173 0 0 1-1.231 1.195c-.52.284-1.117.427-1.792.427zm0-1.304c.374 0 .707-.081 1-.244s.52-.398.683-.707c.171-.309.256-.67.256-1.085 0-.423-.085-.784-.256-1.085-.162-.309-.39-.544-.683-.707s-.622-.244-.987-.244c-.374 0-.707.081-.999.244a1.797 1.797 0 0 0-.683.707c-.171.301-.256.662-.256 1.085 0 .414.085.776.256 1.085s.398.544.683.707c.292.163.622.244.987.244zm7.857 1.304c-.666 0-1.259-.142-1.78-.427-.52-.293-.93-.691-1.231-1.195s-.451-1.077-.451-1.719c0-.65.15-1.223.451-1.719.301-.504.711-.898 1.231-1.182s1.114-.427 1.78-.427c.675 0 1.272.142 1.792.427.528.284.939.675 1.231 1.17.301.496.451 1.073.451 1.731 0 .642-.15 1.215-.451 1.719a3.173 3.173 0 0 1-1.231 1.195c-.52.284-1.117.427-1.792.427zm0-1.304c.374 0 .707-.081 1-.244s.52-.398.683-.707c.171-.309.256-.67.256-1.085 0-.423-.085-.784-.256-1.085-.162-.309-.39-.544-.683-.707s-.622-.244-.987-.244a2.02 2.02 0 0 0-1 .244 1.797 1.797 0 0 0-.683.707c-.171.301-.256.662-.256 1.085 0 .414.085.776.256 1.085s.398.544.683.707c.293.163.622.244.987.244zm7.882 3.669c-.601 0-1.19-.081-1.768-.244-.569-.154-1.036-.382-1.402-.683l.683-1.146c.285.236.642.423 1.073.561.439.146.882.219 1.329.219.715 0 1.24-.167 1.573-.5.333-.325.5-.817.5-1.475v-1.158l.122-1.475-.049-1.475v-1.585h1.451v5.522c0 1.178-.301 2.044-.902 2.597-.601.561-1.471.841-2.609.841zm-.195-2.743c-.618 0-1.178-.13-1.682-.39a3.098 3.098 0 0 1-1.182-1.109c-.284-.471-.427-1.024-.427-1.658 0-.626.142-1.174.427-1.646a3.023 3.023 0 0 1 1.182-1.097 3.615 3.615 0 0 1 1.682-.39c.553 0 1.048.11 1.487.329s.789.561 1.048 1.024c.268.463.402 1.056.402 1.78s-.134 1.321-.402 1.792c-.26.463-.61.809-1.048 1.036a3.284 3.284 0 0 1-1.487.329zm.231-1.292c.382 0 .723-.077 1.024-.232.301-.163.533-.382.695-.658.171-.284.256-.61.256-.975s-.085-.687-.256-.963a1.57 1.57 0 0 0-.695-.646c-.301-.154-.642-.232-1.024-.232s-.727.077-1.036.232a1.648 1.648 0 0 0-.707.646c-.162.276-.244.597-.244.963s.082.691.244.975c.171.276.406.496.707.658a2.29 2.29 0 0 0 1.036.232zm5.478 1.585V16.86h1.524v9.045h-1.524zm6.584.085c-.723 0-1.357-.142-1.902-.427a3.24 3.24 0 0 1-1.256-1.195c-.293-.504-.439-1.077-.439-1.719 0-.65.142-1.223.427-1.719a3.147 3.147 0 0 1 1.195-1.182c.512-.284 1.093-.427 1.743-.427.634 0 1.199.138 1.694.414s.886.666 1.17 1.17c.285.504.427 1.097.427 1.78 0 .065-.004.138-.012.219 0 .081-.004.158-.012.232h-5.425v-1.012h4.62l-.597.317c.008-.374-.069-.703-.232-.987s-.386-.508-.67-.67a1.858 1.858 0 0 0-.963-.244c-.374 0-.703.081-.987.244-.276.163-.496.39-.658.683-.154.284-.232.622-.232 1.012v.244c0 .39.09.735.268 1.036s.431.532.756.695a2.47 2.47 0 0 0 1.122.244c.366 0 .695-.057.987-.171s.553-.293.78-.536l.817.939a2.92 2.92 0 0 1-1.109.792c-.439.179-.942.268-1.512.268zm8.039-.085v-8.533h3.511c.756 0 1.402.122 1.938.366.545.244.963.593 1.256 1.048s.439.996.439 1.621c0 .626-.146 1.166-.439 1.621s-.711.805-1.256 1.048c-.536.244-1.182.366-1.938.366H75.72l.707-.744v3.206h-1.585zm1.584-3.036-.707-.768h2.56c.699 0 1.223-.146 1.573-.439.358-.301.536-.719.536-1.256 0-.544-.179-.963-.536-1.256-.349-.293-.874-.439-1.573-.439h-2.56l.707-.78v4.937zm7.115 3.036V16.86h1.524v9.045h-1.524zm7.534 0v-1.317l-.085-.28v-2.304c0-.447-.134-.792-.402-1.036-.268-.252-.675-.378-1.219-.378-.366 0-.727.057-1.085.171a2.672 2.672 0 0 0-.89.475l-.597-1.109a3.539 3.539 0 0 1 1.243-.597 5.53 5.53 0 0 1 1.512-.207c.943 0 1.67.228 2.182.683.52.447.78 1.142.78 2.085v3.816h-1.438zm-2.048.085c-.488 0-.914-.081-1.28-.244a2.078 2.078 0 0 1-.853-.695 1.82 1.82 0 0 1-.293-1.012c0-.366.085-.695.256-.987.179-.293.467-.524.866-.695s.926-.256 1.585-.256h1.89v1.012h-1.78c-.52 0-.87.085-1.048.256a.79.79 0 0 0-.268.61c0 .276.11.496.329.658s.524.244.914.244c.374 0 .707-.085 1-.256.301-.171.516-.423.646-.756l.256.914c-.146.382-.41.679-.792.89-.374.211-.849.317-1.426.317zm5.859 2.365c-.317 0-.634-.053-.951-.158s-.581-.252-.792-.439l.61-1.122c.154.138.329.248.524.329s.394.122.597.122c.276 0 .5-.069.67-.207s.329-.37.475-.695l.378-.853.122-.183 2.462-5.754h1.463l-3.048 7.034c-.203.488-.431.874-.683 1.158a2 2 0 0 1-.829.597 2.802 2.802 0 0 1-1 .171zm1.341-2.219-2.938-6.741h1.585l2.389 5.62-1.036 1.122z" style="fill:var(--color7, #000)"/>
    </symbol>
        <!-- <symbol id="icon-BUTTON" viewBox="0 0 110 32">
      <path fill="#fff" d="M3.429.381h102.857a3.048 3.048 0 0 1 3.048 3.048v25.143a3.048 3.048 0 0 1-3.048 3.048H3.429a3.048 3.048 0 0 1-3.048-3.048V3.429A3.048 3.048 0 0 1 3.429.381z" style="fill:var(--color1, #fff)"/>
      <path fill="none" stroke="#a6a6a6" stroke-width=".762" d="M3.429.381h102.857a3.048 3.048 0 0 1 3.048 3.048v25.143a3.048 3.048 0 0 1-3.048 3.048H3.429a3.048 3.048 0 0 1-3.048-3.048V3.429A3.048 3.048 0 0 1 3.429.381z" style="stroke:var(--color2, #a6a6a6)"/>
      <path fill="#34a853" d="M19.274 13 7.401 6.359c-.699-.386-1.314-.339-1.69.051l10.13 9.969L19.274 13z" style="fill:var(--color3, #34a853)"/>
      <path fill="#ea4335" d="m19.274 19.758-3.433-3.379-10.13 9.973c.377.39.992.437 1.69.047l11.873-6.641z" style="fill:var(--color4, #ea4335)"/>
      <path fill="#fbbc04" d="m19.194 19.8-3.353-3.305v-.234l3.358-3.305.075.043 3.976 2.227c1.135.632 1.135 1.672 0 2.308L19.195 19.8z" style="fill:var(--color5, #fbbc04)"/>
      <path fill="#4285f4" d="M5.71 6.41c-.239.246-.377.629-.377 1.125v17.692c0 .496.138.879.377 1.125l.059.054 10.071-9.91v-.234L5.769 6.352l-.059.058z" style="fill:var(--color6, #4285f4)"/>
      <path d="M28.832 11.855c-.406 0-.782-.066-1.128-.198a2.777 2.777 0 0 1-.891-.571 2.686 2.686 0 0 1-.587-.861c-.137-.33-.206-.691-.206-1.082s.069-.752.206-1.082a2.613 2.613 0 0 1 1.485-1.425c.345-.137.721-.206 1.128-.206s.777.064 1.112.19c.34.127.63.32.869.579l-.35.358c-.224-.223-.47-.383-.739-.48s-.559-.145-.869-.145c-.33 0-.635.056-.914.168a2.141 2.141 0 0 0-1.204 1.166 2.22 2.22 0 0 0-.168.876c0 .315.056.607.168.876.117.269.277.505.48.709.208.198.45.353.724.465.279.107.582.16.907.16.305 0 .592-.046.861-.137a1.99 1.99 0 0 0 .754-.465l.32.427a2.616 2.616 0 0 1-.891.51 3.39 3.39 0 0 1-1.067.168zm1.417-.746V9.143h.541v2.034l-.541-.069zm2.563-2.248h2.819v.48h-2.819v-.48zm.061 2.461h3.208v.488H32.31V6.477h3.657v.488h-3.093v4.358zm5.493.488V6.964h-1.874v-.488h4.312v.488H38.93v4.846h-.564zm5.181 0V6.477h.564v5.333h-.564zm3.259 0V6.964h-1.874v-.488h4.312v.488H47.37v4.846h-.564zm7.512.045c-.401 0-.774-.066-1.12-.198a2.777 2.777 0 0 1-.891-.571 2.783 2.783 0 0 1-.587-.861c-.137-.33-.206-.691-.206-1.082s.069-.749.206-1.074a2.67 2.67 0 0 1 .587-.861c.254-.249.551-.439.891-.571.34-.137.714-.206 1.12-.206.401 0 .772.069 1.112.206.34.132.635.32.884.564.254.244.45.531.587.861.142.33.213.691.213 1.082s-.071.752-.213 1.082c-.137.33-.333.617-.587.861a2.677 2.677 0 0 1-.884.571c-.34.132-.711.198-1.112.198zm0-.503c.32 0 .614-.053.884-.16a2.14 2.14 0 0 0 1.181-1.166c.112-.269.168-.564.168-.884s-.056-.612-.168-.876a2.09 2.09 0 0 0-.472-.701 1.979 1.979 0 0 0-.709-.465c-.269-.112-.564-.168-.884-.168s-.617.056-.891.168a2.06 2.06 0 0 0-.716.465 2.248 2.248 0 0 0-.472.701 2.22 2.22 0 0 0-.168.876c0 .315.056.607.168.876.117.269.274.505.472.709.203.198.442.353.716.465.274.107.571.16.891.16zm3.983.458V6.477h.465l3.68 4.632h-.244V6.477h.556v5.333h-.465l-3.672-4.632h.244v4.632h-.564zM30.756 26.027c-.666 0-1.28-.106-1.841-.317a4.532 4.532 0 0 1-1.451-.914c-.414-.398-.735-.866-.963-1.402s-.341-1.122-.341-1.755.114-1.219.341-1.755c.228-.536.549-1 .963-1.39a4.376 4.376 0 0 1 1.475-.914 5.018 5.018 0 0 1 1.841-.329c.723 0 1.373.118 1.95.354a3.83 3.83 0 0 1 1.475 1.036l-1 .975a3.195 3.195 0 0 0-1.085-.731 3.2 3.2 0 0 0-1.268-.244c-.447 0-.861.073-1.243.219s-.711.354-.987.622a2.854 2.854 0 0 0-.646.951 3.228 3.228 0 0 0-.219 1.207c0 .431.073.829.219 1.195.154.366.37.687.646.963.276.268.601.475.975.622s.788.219 1.243.219c.423 0 .829-.065 1.219-.195a3.387 3.387 0 0 0 1.134-.683l.902 1.182c-.447.358-.967.63-1.56.817a6.05 6.05 0 0 1-1.78.268zm1.841-1.293V21.54h1.499v3.401l-1.499-.207zm6.369 1.256c-.666 0-1.26-.142-1.78-.427-.52-.293-.931-.691-1.231-1.195s-.451-1.077-.451-1.719c0-.65.15-1.223.451-1.719.301-.504.711-.898 1.231-1.182s1.113-.427 1.78-.427c.675 0 1.272.142 1.792.427.528.284.939.675 1.231 1.17.301.496.451 1.073.451 1.731 0 .642-.15 1.215-.451 1.719a3.173 3.173 0 0 1-1.231 1.195c-.52.284-1.117.427-1.792.427zm0-1.304c.374 0 .707-.081 1-.244s.52-.398.683-.707c.171-.309.256-.67.256-1.085 0-.423-.085-.784-.256-1.085-.162-.309-.39-.544-.683-.707s-.622-.244-.987-.244c-.374 0-.707.081-.999.244a1.797 1.797 0 0 0-.683.707c-.171.301-.256.662-.256 1.085 0 .414.085.776.256 1.085s.398.544.683.707c.292.163.622.244.987.244zm7.857 1.304c-.666 0-1.259-.142-1.78-.427-.52-.293-.93-.691-1.231-1.195s-.451-1.077-.451-1.719c0-.65.15-1.223.451-1.719.301-.504.711-.898 1.231-1.182s1.114-.427 1.78-.427c.675 0 1.272.142 1.792.427.528.284.939.675 1.231 1.17.301.496.451 1.073.451 1.731 0 .642-.15 1.215-.451 1.719a3.173 3.173 0 0 1-1.231 1.195c-.52.284-1.117.427-1.792.427zm0-1.304c.374 0 .707-.081 1-.244s.52-.398.683-.707c.171-.309.256-.67.256-1.085 0-.423-.085-.784-.256-1.085-.162-.309-.39-.544-.683-.707s-.622-.244-.987-.244a2.02 2.02 0 0 0-1 .244 1.797 1.797 0 0 0-.683.707c-.171.301-.256.662-.256 1.085 0 .414.085.776.256 1.085s.398.544.683.707c.293.163.622.244.987.244zm7.882 3.669c-.601 0-1.19-.081-1.768-.244-.569-.154-1.036-.382-1.402-.683l.683-1.146c.285.236.642.423 1.073.561.439.146.882.219 1.329.219.715 0 1.24-.167 1.573-.5.333-.325.5-.817.5-1.475v-1.158l.122-1.475-.049-1.475v-1.585h1.451v5.522c0 1.178-.301 2.044-.902 2.597-.601.561-1.471.841-2.609.841zm-.195-2.743c-.618 0-1.178-.13-1.682-.39a3.098 3.098 0 0 1-1.182-1.109c-.284-.471-.427-1.024-.427-1.658 0-.626.142-1.174.427-1.646a3.023 3.023 0 0 1 1.182-1.097 3.615 3.615 0 0 1 1.682-.39c.553 0 1.048.11 1.487.329s.789.561 1.048 1.024c.268.463.402 1.056.402 1.78s-.134 1.321-.402 1.792c-.26.463-.61.809-1.048 1.036a3.284 3.284 0 0 1-1.487.329zm.231-1.292c.382 0 .723-.077 1.024-.232.301-.163.533-.382.695-.658.171-.284.256-.61.256-.975s-.085-.687-.256-.963a1.57 1.57 0 0 0-.695-.646c-.301-.154-.642-.232-1.024-.232s-.727.077-1.036.232a1.648 1.648 0 0 0-.707.646c-.162.276-.244.597-.244.963s.082.691.244.975c.171.276.406.496.707.658a2.29 2.29 0 0 0 1.036.232zm5.478 1.585V16.86h1.524v9.045h-1.524zm6.584.085c-.723 0-1.357-.142-1.902-.427a3.24 3.24 0 0 1-1.256-1.195c-.293-.504-.439-1.077-.439-1.719 0-.65.142-1.223.427-1.719a3.147 3.147 0 0 1 1.195-1.182c.512-.284 1.093-.427 1.743-.427.634 0 1.199.138 1.694.414s.886.666 1.17 1.17c.285.504.427 1.097.427 1.78 0 .065-.004.138-.012.219 0 .081-.004.158-.012.232h-5.425v-1.012h4.62l-.597.317c.008-.374-.069-.703-.232-.987s-.386-.508-.67-.67a1.858 1.858 0 0 0-.963-.244c-.374 0-.703.081-.987.244-.276.163-.496.39-.658.683-.154.284-.232.622-.232 1.012v.244c0 .39.09.735.268 1.036s.431.532.756.695a2.47 2.47 0 0 0 1.122.244c.366 0 .695-.057.987-.171s.553-.293.78-.536l.817.939a2.92 2.92 0 0 1-1.109.792c-.439.179-.942.268-1.512.268zm8.039-.085v-8.533h3.511c.756 0 1.402.122 1.938.366.545.244.963.593 1.256 1.048s.439.996.439 1.621c0 .626-.146 1.166-.439 1.621s-.711.805-1.256 1.048c-.536.244-1.182.366-1.938.366H75.72l.707-.744v3.206h-1.585zm1.584-3.036-.707-.768h2.56c.699 0 1.223-.146 1.573-.439.358-.301.536-.719.536-1.256 0-.544-.179-.963-.536-1.256-.349-.293-.874-.439-1.573-.439h-2.56l.707-.78v4.937zm7.115 3.036V16.86h1.524v9.045h-1.524zm7.534 0v-1.317l-.085-.28v-2.304c0-.447-.134-.792-.402-1.036-.268-.252-.675-.378-1.219-.378-.366 0-.727.057-1.085.171a2.672 2.672 0 0 0-.89.475l-.597-1.109a3.539 3.539 0 0 1 1.243-.597 5.53 5.53 0 0 1 1.512-.207c.943 0 1.67.228 2.182.683.52.447.78 1.142.78 2.085v3.816h-1.438zm-2.048.085c-.488 0-.914-.081-1.28-.244a2.078 2.078 0 0 1-.853-.695 1.82 1.82 0 0 1-.293-1.012c0-.366.085-.695.256-.987.179-.293.467-.524.866-.695s.926-.256 1.585-.256h1.89v1.012h-1.78c-.52 0-.87.085-1.048.256a.79.79 0 0 0-.268.61c0 .276.11.496.329.658s.524.244.914.244c.374 0 .707-.085 1-.256.301-.171.516-.423.646-.756l.256.914c-.146.382-.41.679-.792.89-.374.211-.849.317-1.426.317zm5.859 2.365c-.317 0-.634-.053-.951-.158s-.581-.252-.792-.439l.61-1.122c.154.138.329.248.524.329s.394.122.597.122c.276 0 .5-.069.67-.207s.329-.37.475-.695l.378-.853.122-.183 2.462-5.754h1.463l-3.048 7.034c-.203.488-.431.874-.683 1.158a2 2 0 0 1-.829.597 2.802 2.802 0 0 1-1 .171zm1.341-2.219-2.938-6.741h1.585l2.389 5.62-1.036 1.122z" style="fill:var(--color7, #000)"/>
    </symbol> -->
  </defs>
</svg>
