<svg xmlns="http://www.w3.org/2000/svg" aria-hidden="true" style="position:absolute;width:0;height:0;overflow:hidden">
  <defs>
    <symbol id="icon-arrow-back" viewBox="0 0 32 32">
      <path d="M29 16a.997.997 0 0 1-1 1H6.414l8.293 8.293a1.002 1.002 0 0 1-.012 1.402 1 1 0 0 1-1.402.012l-10-10a1.003 1.003 0 0 1 0-1.414l10-10a1.002 1.002 0 0 1 1.402.012 1 1 0 0 1 .012 1.401l-8.293 8.293H28a.997.997 0 0 1 1 1z"/>
    </symbol>
    <symbol id="icon-burger" viewBox="0 0 48 32">
      <path d="M2.667 32c-.756 0-1.388-.256-1.899-.768S.002 30.087 0 29.333c-.002-.754.254-1.387.768-1.899s1.147-.768 1.899-.768h42.667c.755 0 1.389.256 1.901.768s.767 1.145.765 1.899c-.002.754-.258 1.387-.768 1.901s-1.143.769-1.899.765H2.666zm0-13.333c-.756 0-1.388-.256-1.899-.768S.002 16.754 0 16c-.002-.754.254-1.387.768-1.899s1.147-.768 1.899-.768h42.667c.755 0 1.389.256 1.901.768S48.002 15.246 48 16c-.002.754-.258 1.388-.768 1.901s-1.143.769-1.899.765H2.666zm0-13.334c-.756 0-1.388-.256-1.899-.768S.002 3.42 0 2.666C-.002 1.912.254 1.279.768.767s1.147-.768 1.899-.768h42.667c.755 0 1.389.256 1.901.768s.767 1.145.765 1.899c-.002.754-.258 1.388-.768 1.901s-1.143.769-1.899.765H2.666z"/>
    </symbol>
    <symbol id="icon-x" viewBox="0 0 33 32">
      <path d="M6.585 6.1a2 2 0 0 1 2.828 0l7.072 7.072L23.557 6.1a1.998 1.998 0 0 1 2.804.025 2.001 2.001 0 0 1 .025 2.804l-7.072 7.072 7.072 7.072a1.998 1.998 0 0 1-.025 2.804 2.001 2.001 0 0 1-2.804.025l-7.072-7.072-7.072 7.072a1.998 1.998 0 0 1-2.804-.025 2.001 2.001 0 0 1-.025-2.804l7.072-7.072-7.072-7.072a2 2 0 0 1 0-2.828z"/>
    </symbol>
    <symbol id="icon-facebook" viewBox="0 0 33 32">
      <path d="M21.452 29.333V19.006h3.467l.519-4.024h-3.987v-2.569c0-1.165.324-1.96 1.996-1.96h2.131v-3.6a28.039 28.039 0 0 0-3.107-.16c-3.072 0-5.175 1.876-5.175 5.32v2.969h-3.477v4.024h3.476v10.327H4.624a1.472 1.472 0 0 1-1.472-1.472V4.138c0-.813.659-1.472 1.472-1.472h23.723c.813 0 1.472.659 1.472 1.472v23.723c0 .813-.659 1.472-1.472 1.472h-6.895z"/>
    </symbol>
    <symbol id="icon-instagram" viewBox="0 0 32 32">
    <path fill="none" stroke="#000" stroke-width="1.1034" stroke-linejoin="round" stroke-linecap="round" d="M3 16c0-6.128 0-9.193 1.904-11.097s4.967-1.904 11.097-1.904c6.128 0 9.193 0 11.097 1.904s1.904 4.967 1.904 11.097c0 6.128 0 9.193-1.904 11.097s-4.967 1.904-11.097 1.904c-6.128 0-9.193 0-11.097-1.904s-1.904-4.967-1.904-11.097z"></path>
    <path fill="none" stroke="#000" stroke-width="1.1034" stroke-linejoin="round" stroke-linecap="round" d="M22.158 16c0 1.633-0.649 3.199-1.804 4.354s-2.721 1.804-4.354 1.804c-1.633 0-3.199-0.649-4.354-1.804s-1.804-2.721-1.804-4.354c0-1.633 0.649-3.199 1.804-4.354s2.721-1.804 4.354-1.804c1.633 0 3.199 0.649 4.354 1.804s1.804 2.721 1.804 4.354z"></path>
    <circle fill="none" stroke="#000" stroke-width="1.1034" cx="23.537" cy="8.474" r="0.5"></circle>
    </symbol>
      <symbol id="icon-union-1" viewBox="0 0 37 32">
      <path fill="none" stroke="#2f85f2" stroke-linecap="round" stroke-width=".821" d="M1.079 12.551v-1.002c0-.904 0-2.663-.032-3.777C.987 5.641.824 4.955.76 4.362.6 3.645.569 3.349.521 3.091c-.016-.16-.016-.38-.112-.681M1.365.854C1.839.83 3.616.633 4.674.546 5.217.484 5.567.46 5.931.423 6.2.41 6.642.41 7.096.41M36.694 30.405v-1.003c0-.856 0-2.493.016-3.397.08-1.25.143-1.595.191-2.014.016-.1.047-.173-.016-.248M31.153 31.59h3.917" style="stroke:var(--color1, #2f85f2)"/>
      <path fill="#2f85f2" d="M13.262 2.55c.192 3.222 2.774 5.774 5.93 5.774s5.738-2.552 5.93-5.774h10.524v8.892c-3.607.308-6.399 2.414-6.399 4.966s2.791 4.657 6.399 4.965v8.893H25.088c-.366-3.038-2.866-5.389-5.895-5.389s-5.53 2.351-5.896 5.389H2.739v-8.942c3.383-.439 5.942-2.473 5.942-4.916s-2.558-4.477-5.942-4.916V2.551h10.524z" style="fill:var(--color1, #2f85f2)"/>
    </symbol>
    <symbol id="icon-union-3" viewBox="0 0 37 32">
      <path fill="#ffe000" d="M1.646.922A.42.42 0 0 1 1.631.08L5.244.014 5.99.001a.422.422 0 0 1 0 .842l-.73.013-3.613.066zM.491 5.532a.421.421 0 0 1-.421-.421l-.008-.776C.054 3.607.038 2.177.026 1.425.014.664.006.657.005.651.003.635-.008.555.011.467A.44.44 0 0 1 .545.132a.422.422 0 0 1 .308.51L.85.651c.005.097.012.294.019.762.012.754.028 2.186.036 2.914l.008.785a.421.421 0 0 1-.421.421zm16.686 26.47c-2.481 0-4.599-1.573-5.439-3.789H1.308V1.266h32v7.066c2.458.9 4.164 2.874 4.164 5.164s-1.706 4.264-4.164 5.164v9.553H22.615c-.84 2.216-2.958 3.789-5.439 3.789z" style="fill:var(--color2, #ffe000)"/>
    </symbol>
    <symbol id="icon-union-4" viewBox="0 0 37 32">
      <path fill="#74c365" d="M35.827 31.081a.42.42 0 0 1 .015.842l-3.613.066-.745.013a.421.421 0 0 1 0-.842l.73-.013 3.613-.066zm1.155-4.61c.233 0 .421.189.421.421l.008.776c.008.728.024 2.158.036 2.91.012.761.02.768.021.774.002.016.013.096-.006.184a.44.44 0 0 1-.534.335.422.422 0 0 1-.308-.51l.003-.009a23.161 23.161 0 0 1-.019-.762c-.012-.754-.028-2.186-.036-2.914l-.008-.785a.42.42 0 0 1 .421-.421zM20.155.001c2.424 0 4.493 1.574 5.31 3.789h10.699v26.947h-32v-7.066C1.706 22.771 0 20.797 0 18.507s1.706-4.264 4.164-5.164V3.79h10.68c.817-2.216 2.886-3.789 5.31-3.789z" style="fill:var(--color3, #74c365)"/>
    </symbol>
    <symbol id="icon-union-2" viewBox="0 0 37 32">
      <path fill="#6018de" d="M35.827 31.08a.42.42 0 0 1 .015.842l-3.613.066-.745.013a.421.421 0 0 1 0-.842l.73-.013 3.613-.066zm1.155-4.61c.233 0 .421.189.421.421l.008.776c.008.728.024 2.158.036 2.91.012.761.02.769.021.774.002.016.013.096-.006.184a.44.44 0 0 1-.534.335.422.422 0 0 1-.308-.51l.003-.009a23.161 23.161 0 0 1-.019-.762c-.012-.754-.028-2.186-.036-2.914l-.008-.785a.42.42 0 0 1 .421-.421zM20.155 0c2.424 0 4.493 1.574 5.31 3.789h10.699v26.947h-32V23.67C1.706 22.77 0 20.796 0 18.506s1.706-4.264 4.164-5.164V3.789h10.68C15.661 1.573 17.73 0 20.154 0z" style="fill:var(--color4, #6018de)"/>
    </symbol>
    <!-- <symbol id="icon-arrow-left" viewBox="0 0 32 32">
      <path d="M26.88 16c0-6.016-4.864-10.88-10.88-10.88S5.12 9.984 5.12 16c0 6.016 4.864 10.88 10.88 10.88S26.88 22.016 26.88 16zM6.4 16c0-5.312 4.288-9.6 9.6-9.6s9.6 4.288 9.6 9.6c0 5.312-4.288 9.6-9.6 9.6S6.4 21.312 6.4 16z"/>
      <path d="M17.088 21.312 11.776 16l5.312-5.312-.896-.896L9.984 16l6.208 6.208.896-.896z"/>
      <path d="M10.88 15.36v1.28h10.88v-1.28H10.88z"/>
    </symbol> -->
    <symbol id="icon-arrow-left" viewBox="0 0 32 32" fill="currentColor">
  <path d="M26.88 16c0-6.016-4.864-10.88-10.88-10.88S5.12 9.984 5.12 16c0 6.016 4.864 10.88 10.88 10.88S26.88 22.016 26.88 16zM6.4 16c0-5.312 4.288-9.6 9.6-9.6s9.6 4.288 9.6 9.6c0 5.312-4.288 9.6-9.6 9.6S6.4 21.312 6.4 16z"/>
  <path d="M17.088 21.312 11.776 16l5.312-5.312-.896-.896L9.984 16l6.208 6.208.896-.896z"/>
  <path d="M10.88 15.36v1.28h10.88v-1.28H10.88z"/>
</symbol>
    <symbol id="icon-v" viewBox="0 0 32 32">
      <path d="M16 29.714c-7.574 0-13.714-6.14-13.714-13.714S8.426 2.286 16 2.286c7.574 0 13.714 6.14 13.714 13.714S23.574 29.714 16 29.714zm0 1.524c8.416 0 15.238-6.822 15.238-15.238S24.416.762 16 .762.762 7.584.762 16 7.584 31.238 16 31.238z"/>
      <path d="M24.13 10.102a.76.76 0 0 1 .055 1.076L14.009 22.424l-6.153-5.873a.762.762 0 0 1 1.052-1.102l5.021 4.792 9.127-10.085a.76.76 0 0 1 1.076-.052z"/>
    </symbol>
    <symbol id="icon-google-play" viewBox="0 0 29 32">
      <path fill="#ea4335" d="M13.544 15.285.12 29.349a3.669 3.669 0 0 0 3.517 2.642c.668 0 1.294-.179 1.833-.491l-.018.009 15.105-8.603z" style="fill:var(--color1, #ea4335)"/>
      <path fill="#fbbc04" d="m27.118 12.894-6.532-3.741-7.352 6.452 7.382 7.282 6.482-3.701a3.546 3.546 0 0 0 1.491-4.81l.009.019a3.655 3.655 0 0 0-1.481-1.491l-.019-.009z" style="fill:var(--color2, #fbbc04)"/>
      <path fill="#4285f4" d="M.12 2.661c-.076.275-.12.592-.12.918V28.431c0 .326.044.643.126.943l-.006-.025 13.884-13.704z" style="fill:var(--color3, #4285f4)"/>
      <path fill="#34a853" d="m13.644 16.005 6.942-6.852L5.501.51A3.681 3.681 0 0 0 3.631 0h-.008A3.644 3.644 0 0 0 .125 2.625l-.006.026z" style="fill:var(--color4, #34a853)"/>
    </symbol>
     <symbol id="icon-lavr" viewBox="0 0 42 32">
      <path d="M.335 24.799c-.054-.656-.086-1.195.189-1.786.299-.351.709-.677 1.145-.69.226-.011.357-.022.52-.219.102-.173.195-.345.284-.529.187-.339.407-.597.654-.872.204-.236.397-.476.587-.732l-.058-.062c-.088.028-.175.056-.262.086-.19.028-.381.04-.573.054l-.154.014c-.325.024-.615 0-.937-.076.006-.309.08-.6.195-.878.184.2.363-.055.541-.243.239-.221.465-.406.791-.494.73-.206.734-.196 1.334-.683l.092-.101c.559-.744.341-2.415.5-3.49a9.37 9.37 0 0 1 .132-.755c.152-.703.381-1.38.706-1.967.028-.051.057-.102.088-.153.147-.228.146-.226.266-.466-.61.064-1.017.336-1.409 1.045-.289.535-.556 1.01-.832 1.526a7.024 7.024 0 0 0-.189.39c-.265.579-.523 1.135-.886 1.545-.105.023-.21.043-.316.059-.297-.666-.324-1.438-.195-2.237-.076.117-.076.117-.152.238-.605.879-1.254 1.844-2.066 1.96l-.142.02-.107.014c-.281-1.849.245-4.109 1.414-5.47 1.066-1.155 1.973-.976 2.729-.585l.16.079c.333.167.642.367.953.576.391.245.676.337 1.168.183.06-.012.119-.022.18-.032.47-.145.871-.338 1.307-.494l-.042-.059c-.014-.019-.028-.042-.042-.064-.089-.155-.088-.156-.1-.266-.055-.206-.192-.341-.324-.494-.536-.655-.753-1.404-.327-2.469.174-.346.401-.669.571-.919.174-.253.257-.415.359-.574.244-.277.536-.547.886-.797.102-.073.102-.074.208-.147.374-.25.705-.424 1.137-.507.053.235-.033.379-.235.671-.178.261-.176.262-.25.512.049-.036.099-.071.151-.106 1.108-.784 2.587-1.146 3.83-1.091l.201.007.078.004c1.793.086 1.787.077 2.653.192.216.024.399.036.623.025.131-.119.195-.238.262-.385.117-.236.19-.381.491-.502.21-.073.299-.079.542-.081l-.017-.121c.018-.187.086-.228.259-.354.471-.368.737-.684.874-1.203.476-.044.468-.044.74.083.185.213.187.385.154.641l-.061.163c.152.013.314.025.475.037-.011.331-.106.473-.384.709-.087.041-.176.08-.269.116l.254-.062c.741-.152 1.434-.083 2.197.014.971.154.962.144 2 .025.892-.461 1.342-.979 1.878-1.622.517-.631 1.617-1.045 3.139-.851l.15.022a1.25 1.25 0 0 1 .746-.016c-.116.344-.319.578-.551.843-.258.297-.511.588-.749.901-.054.07-.11.137-.164.201-.514.265-1.136.435-1.815.642a6.522 6.522 0 0 1 1.471.28c.194.052.411.117.641.195.268.088.499.112.788.102.174.036.175.035.294.07l-.083.365.15.076c.603.3.61.293.827.435.279.144.503.137.8.07.222-.108.272-.251.355-.447.16-.342.337-.559.656-.786a3.77 3.77 0 0 0 .589-.552l.136-.158c.241-.32.25-.596.273-.985a.942.942 0 0 1 .181-.445l.147.054c.044.128.044.128.079.287.043.188.074.298.181.459-.007.116-.007.116-.035.248l-.031.145-.032.143-.019.12c-.131.805-.697 1.45-1.487 1.856-.287.133-.59.238-.902.33-.16.039-.16.038-.24.094l.156.05c1.339.429 2.714.775 4.144.963.08.011.161.02.245.03a14.889 14.889 0 0 0 2.433.082c.157-.008.313-.019.471-.032a8.818 8.818 0 0 0 1.491-.258c.183-.04.183-.04.36-.008.038.138.038.138.053.272a2.377 2.377 0 0 1-.849.272 11.347 11.347 0 0 1-.422.052 15.92 15.92 0 0 1-.987.073c-2.066.079-4.008-.288-5.93-.681l.1.069c.25.173.504.342.755.514l.173.112c.093.059.183.119.273.179.109.072.109.073.301.133.146-.015.275-.047.415-.085.39-.109.668-.062 1.045.031.632.188 1.048.464 1.36.922.302.467.32.986.346 1.514-1.076.168-2.023.101-2.828-.356-.461-.325-.716-.614-.705-1.084l.002-.177c.013-.174.013-.174.056-.351l.028-.144c-.095-.095-.095-.095-.209-.162l.001-.107c-.639-.23-1.28-.28-1.963-.367a26.76 26.76 0 0 1-2.013-.346l-.194-.042-.179-.039a8.221 8.221 0 0 1-.151-.035c-.132-.03-.132-.03-.273-.004.043.059.087.117.134.177.112.162.128.205.112.384l-.056.145-.072.313.122.034c.435.126.749.241 1.041.537.159.268.26.615.138.88-.235.083-.351.105-.628.054l-.105.143-.15-.029-.106.143c-.486-.127-.89-.32-1.195-.645a.847.847 0 0 1-.01-.57l.116-.119c.149-.208.125-.39.106-.638l-.005-.13c-.01-.246-.015-.247-.141-.479l-.383-.075a3.758 3.758 0 0 1-.659-.198 6.223 6.223 0 0 1-1.357-.752 21.768 21.768 0 0 0-.477-.373c-.497-.372-1.04-.63-1.657-.84-.089-.035-.089-.035-.181-.069-.276-.04-.461.047-.69.144l-.146.058c-.154.064-.317.129-.47.195l-.535.224-.347.146-.16.067-.144.06c-.115.043-.115.043-.254.049l.004.107.157-.012c.776-.049 1.327.069 2.02.328.359.133.718.245 1.086.362.71.229 1.283.551 1.734.994l.116.116.102.112.089.103c.057.094.056.094.015.249a1.255 1.255 0 0 1-.463.044l-.136-.008c-.047-.002-.093-.005-.142-.006-.046-.001-.094-.002-.142-.001-1.071-.006-2.806.061-4.013-.532-.073-.033-.14-.067-.211-.101-.322-.188-.518-.462-.737-.717-.077-.087-.159-.173-.234-.259l-.097-.111c-.301-.277-.698-.322-1.136-.408-.193-.039-.4-.079-.588-.121l-.465-.097-.219-.048a7.816 7.816 0 0 0-1.183-.163 1.156 1.156 0 0 1-.49-.181l-.048.17c-.161.528-.327 1.055-.672 1.532l-.215.05.005-.267-.1.078c-.113.078-.113.078-.252.075l.003-.16-.072.105-.14-.003c-.28-.501-.491-.95-.234-1.474.213-.216.451-.331.758-.441-.455-.013-.931-.028-1.393-.044l-.314-.012a6.512 6.512 0 0 0-.196-.006c-.954-.025-2.026.144-2.929.663a6.526 6.526 0 0 0-.194.114c-.697.443-1.078 1.032-1.308 1.605-.096.334-.218.68-.379 1.037.228-.158.384-.393.528-.604.037-.052.074-.102.112-.152.279-.357.628-.638 1.043-.889a5.075 5.075 0 0 1 .755-.381l.082.198-.314.413a4.772 4.772 0 0 0-.263.401c-.15.261-.261.53-.353.801l-.053.16-.06.199c-.028.068-.056.136-.086.203l.175.088c.078.039.155.078.234.115l.096.044.025.016c.192.124.339.242.474.428.132.154.133.152.278.155.231-.012.423-.034.602-.046l-.025-.103c-.129-.599-.037-1.191.524-1.511.292-.127.564-.097.881.013.083.027.165.046.25.063.11.018.221.031.336.044l-.068-.109-.264-.042a4.336 4.336 0 0 0-.247-.037c-.386-.055-.66-.079-.971-.319-.387-.352-.632-.567-.741-1.077.004-.204.002-.205.126-.371.629-.33 1.32-.184 1.883.035l.01.004c.5.216.801.467 1.118.829.114.108.221.147.379.208.128.207.103.437.009.647-.166.262-.388.428-.68.621l-.074.159c.079-.062.081-.062.165-.126.281-.184.28-.184.487-.179.227.082.223.082.423.169.05-.123.1-.245.15-.372l-.289-.005c-.025.035-.048.07-.072.106.022-.292.198-.464.422-.691.105-.097.105-.097.093-.21l-.069-.108c.41-.441.999-.702 1.693-.828.593-.055 1.146.014 1.646.266.107.077.107.077.167.246-.114.434-.339.76-.822 1.019l.169.055c.796.273 1.372.57 1.729 1.182.167.32.266.619.308.961l-.155-.045c-.348-.081-.538-.127-.886-.013l-.127.048c-.652.205-1.402.105-2.029-.087-.571-.194-1.084-.431-1.513-.769a1.48 1.48 0 0 0-.435.207 2.982 2.982 0 0 1-.785-.177c-.461.314-.684.601-.765 1.065-.002.332.219.545.481.803.375.252.878.178 1.353.173.465.031.781.197 1.092.446.232.211.379.447.529.69l.099.153c.233.371.241.371.24.555-1.131.04-1.988.033-2.857-.54-.386-.277-.604-.502-.672-.897l.019-.194c-.01-.206-.083-.265-.264-.418-.411-.396-.425-.863-.351-1.333l.077-.104-.124.038-.022.012c-.551.301-.62.524-.92.407-.093-.065-.155-.098-.271-.218-.059-.008-.059-.009-.128 0-.19.014-.429.033-.696.092a7.03 7.03 0 0 1-.441.224 3.865 3.865 0 0 1-1.507.391l.026.166c.104.68.119 1.071-.193 1.69a2.23 2.23 0 0 1-.054.093c-.09.325-.137.419-.421.557-.465-.19-.777-.369-1.003-.758-.043-.137-.044-.137-.062-.283-.008-.073-.008-.072-.014-.148.003-.15.036-.282.098-.426-.588.12-1.17.429-1.616 1.002-.056.072-.056.072-.111.147-.198.281-.381.633-.37 1.019.092.194.217.32.363.453 1.253 1.19 2.446 1.822 3.282 4.016a10.027 10.027 0 0 1 .182.696c.045.216.093.477.121.826.082 1.181-.019 2.673-.531 3.548-.113.056-.113.056-.211.08-.116-.211-.152-.35-.204-.596l-.05-.23-.053-.242c-.213-.929-.521-1.718-.947-2.387-.365-.733-.852-1.051-1.391-1.378a3.631 3.631 0 0 1-.538-.444c.164.674.393 1.306.516 1.945.126.738.281 1.47.453 2.223.142.628.257 1.262.352 1.905l.039.263c.056.397.104.796.137 1.197.049.575.14 1.11.26 1.667.438 2.076.402 3.966-.075 6.003-.309-.055-.422-.268-.606-.574-.752-1.454-.787-3.418-.549-5.113.101-.68.098-.681.166-.955.037-.157.066-.299.074-.462-.089-.199-.089-.199-.239-.341-.288-.335-.454-.667-.624-1.113a4.2 4.2 0 0 0-.211.523c-.323.851-.864 1.349-1.556 1.628a.433.433 0 0 1-.321-.05c-.132-.348-.03-.91.061-1.264l.116-.356c.05-.21.045-.384.032-.603-.013-.279-.016-.354.095-.605.071-.091.071-.091.155-.184l.096-.113.208-.243a5.5 5.5 0 0 0 .455-.691l-.096.075c-.111.072-.111.072-.229.057-.099-.042-.099-.042-.156-.107-.009-.299.004-.438.151-.672.052-.06.105-.12.159-.178l.078-.092a1.38 1.38 0 0 1 .395-.341c.185-.172.197-.279.228-.559l.014-.17.017-.179a14.5 14.5 0 0 0 .031-.374l.009-.123c.016-.095.023-.22.024-.35-.009-.72-.199-1.478-.428-2.272a21.926 21.926 0 0 0-.123 2.045c-.008.255-.035.505-.108.631a8.757 8.757 0 0 1-.107.445l-.037.146c-.099.358-.25.603-.483.833a.9.9 0 0 1-.422.1l-.14.008-.127.006c-.369.024-.699.516-.945.826-.15.212-.286.438-.421.663-.037.06-.037.061-.074.124-.141.236-.141.231-.165.515.055.064.11.127.167.188.138.234.139.478.142.754l.002.14c-.002.557-.12 1.021-.441 1.433-.421.449-.916.571-1.465.557l-.145-.003-.11-.003c-.014-.2-.029-.398-.045-.596l-.014-.167zM5.834 14.01c-.091.995.03 1.636.756 2.265.245.181.497.342.751.496.53.365.985.775 1.362 1.75l.104.205.109.209c.24.477.396.939.512 1.491l.053-.003c-.001-.711-.2-1.335-.459-1.929-.148-.505-.342-.812-.525-1.105-.064-.101-.127-.195-.191-.291a15.233 15.233 0 0 0-.87-1.14c-.071-.101-.072-.102-.122-.296.765.486 1.477.972 2.014 2.327l.053-.009c-.178-1.225-.682-1.87-1.21-2.371-.221-.185-.447-.358-.669-.535-.418-.342-.669-.7-.87-1.24-.134-.355-.27-.626-.5-.903a4.42 4.42 0 0 1-.108-.065 9.638 9.638 0 0 0-.189 1.143zm3.457-5.698a3.328 3.328 0 0 0-.549.385 10.432 10.432 0 0 0-.472.408c.049.203.051.202.105.408.246.033.245.033.491-.003l.104.123c.038-.078.075-.155.115-.234l-.067-.083c-.054-.002-.106-.005-.162-.006.327-.243.554-.296.954-.318.33-.025.642-.064 1.088-.315-.76-.311-.778-.303-1.607-.363zm7.646-1.614c.114.091.113.091.279.162.223-.003.224-.003.449-.042l.228-.035.179-.03v-.107a79.906 79.906 0 0 1-1.064-.055l-.071.107zm-3.035-.545.005-.16-.063-.002.058.162zM7.09 27.233c-.133.673-.2 1.275-.142 1.96l.053.003.027-.234c.087-.723.197-1.434.325-2.15a5.5 5.5 0 0 0 .099-1.042c-.17.32-.21.678-.281 1.052-.026.137-.054.274-.082.411zM21.13 4.711c.177.089.353.177.534.264l.15.075c.457.218.885.376 1.443.318-.191-.087-.387-.156-.588-.227a3.68 3.68 0 0 1-.805-.389.944.944 0 0 0-.6-.152 8.95 8.95 0 0 1-.135.112zM6.296 21.391c-.054.309.093.491.224.737.232.448.435.906.619 1.39.064-.257.033-.459-.009-.721l-.043-.262-.047-.273-.045-.265c-.146-.851-.146-.854-.362-1.68l-.111-.063c-.04.212-.08.417-.122.627l-.036.18-.035.17-.033.159zm22.98-15.77c-.022.13-.023.13-.002.277.114.106.112.106.244.175.073-.083.073-.083.122-.19a8.511 8.511 0 0 1-.097-.191c-.09-.024-.175-.046-.267-.072zm-20.515.172c-.112.647-.562 1.423-.728 2.185l.121.04c.325-.781.714-1.56.721-2.253l-.115.028zM6.023 18.968a9.24 9.24 0 0 0 .073 2.217c.132-.188.157-.374.209-.619l.054-.261c.081-.464.055-.84-.028-1.306l-.028-.169-.017-.1a.636.636 0 0 0-.011-.051c-.013-.061-.014-.063-.03-.128-.041-.13-.042-.137-.184-.282.003.169.001.345-.019.482l-.004.045-.015.171zM27.637 3.815c.243.262.477.523.701.79l.033.04.043.065c.112.156.205.265.379.377.079-.031.163-.06.24-.093-.276-.364-.388-.534-.537-.683-.182-.145-.402-.283-.859-.496zm-5.611-.705a3.958 3.958 0 0 0-1.187.297 9.16 9.16 0 0 1-.787.281c-.14.047-.275.104-.404.164-.366.154-.711.17-1.126.167-.256-.012-.257-.012-.46.113 1.293.328 2.502.348 3.734-.143.1-.04.211-.08.313-.119.202-.08.419-.163.621-.246.289-.115.572-.225.865-.333l.242-.089.175-.062-.004-.107c-.323.01-.631.022-.946.036l-.314.013-.452.019-.27.011zm7.915 1.58a4.312 4.312 0 0 0-.958-.392l-.142-.045a13.775 13.775 0 0 1-.343-.116l.046.043c.288.337.752.498 1.241.582l.156-.071zM4.944 23.416c.189-.104.309-.252.449-.442l.12-.162c.096-.142.18-.282.26-.439l-.058-.136c-.434.548-.433.545-.771 1.18zM18.198 3.543c-.301-.03-.424-.015-.611.162l-.147.16.344.107c.131-.141.275-.283.414-.429zm13.416 1.493c.214.035.434.067.651.095l.007-.053c-.19-.043-.383-.088-.576-.138-.027.032-.053.063-.082.095zm-.816-.933c-.527-.288-.858-.277-1.396-.115.346.363.983.499 1.498.633l.14.037c.242.059.34.079.57-.001l.018-.106c-.156-.079-.309-.16-.461-.242l-.128-.071-.126-.07-.113-.065zM.894 14.047l.104-.18c.096-.165.193-.331.292-.497.401-.661.857-1.166 1.386-1.548.165-.12.332-.237.502-.349a8.217 8.217 0 0 1 1.028-.579c-.003-.062-.006-.124-.007-.189-.948-.196-1.892-.185-2.777 1.251-.363.685-.631 1.479-.668 2.345l.14-.253zm2.495 5.211c.331.019.633-.129.9-.354a.71.71 0 0 0 .314-.139c.14-.12.237-.279.306-.489-.027-.037-.053-.07-.081-.106l-.046.092c-.224.407-.575.665-.978.685-.138.089-.279.17-.421.245l.006.067zm1.51 5.308c.169-.092.214-.135.321-.339-.169.092-.213.137-.321.339zM29.078 3.605c-.125-.091-.189-.113-.279-.108a3.876 3.876 0 0 0-.219-.016l-.225-.011-.172-.003c.259.141.332.15.565.165a2.89 2.89 0 0 1 .059-.006c.048-.004.102-.006.154-.011l.117-.011zm-1.737-1.964c-.941.437-1.7.908-2.516 1.369.626-.055 1.049-.301 1.549-.59a15.266 15.266 0 0 1 .864-.515c.134-.075.261-.153.389-.23l-.084-.125c-.067.03-.134.06-.201.092zm6.473 1.703c-.132-.019-.133-.019-.266.09-.185.166-.34.336-.449.553l.052.112a7.904 7.904 0 0 0 .352-.17l.098-.062.007-.107-.121-.009c.048-.103.094-.206.142-.312l.119.008-.073.21.186-.096-.047-.217zM20.345 1.793l.203-.06-.137-.049a4.537 4.537 0 0 1-.066.109zm14.074.718c-.072.093-.141.187-.211.282a7.24 7.24 0 0 1-.119.157l-.087.136.053.109c.061-.073.121-.147.178-.221l.098-.125a.873.873 0 0 0 .143-.337l-.056-.001z"/>
    </symbol>
      <symbol id="icon-ellipse" viewBox="0 0 32 32">
      <path d="M26.117 16c0 5.666-4.561 10.26-10.188 10.26S5.741 21.666 5.741 16c0-5.666 4.561-10.26 10.188-10.26S26.117 10.334 26.117 16z"/>
    </symbol>
    
       </defs>
</svg>
